<svg xmlns="http://www.w3.org/2000/svg" version="1.1" xmlns:xlink="http://www.w3.org/1999/xlink" xmlns:svgjs="http://svgjs.com/svgjs" width="1440" height="560" preserveAspectRatio="none" viewBox="0 0 1440 560"><g mask="url(&quot;#SvgjsMask1021&quot;)" fill="none"><rect width="1440" height="560" x="0" y="0" fill="rgba(245, 247, 250, 1)"></rect><path d="M59.73452155201253 403.5270698611L-41.99614984581496 442.577815870732-2.9454038361829262 544.3084872685595 98.78526756164456 505.2577412589275z" fill="rgba(28, 83, 142, 0.4)" class="triangle-float1"></path><path d="M1299.1312858279753 482.344631028581L1381.5320723121902 438.5313556786001 1274.6117660451114 336.836813627268z" fill="rgba(28, 83, 142, 0.4)" class="triangle-float3"></path><path d="M1011.4579466285056 273.30754962274005L1047.9690100770247 226.57551947933746 959.6154331376613 195.1749393782602z" fill="rgba(28, 83, 142, 0.4)" class="triangle-float1"></path><path d="M112.264,382.011C158.877,379.985,184.957,333.018,206.568,291.668C226.072,254.35,239.094,212.499,220.638,174.652C199.877,132.079,159.628,98.592,112.264,98.286C64.467,97.978,24.222,131.219,1.44,173.238C-20.238,213.219,-18.716,260.36,2.608,300.531C25.492,343.641,63.503,384.13,112.264,382.011" fill="rgba(28, 83, 142, 0.4)" class="triangle-float2"></path><path d="M234.0787795269735 559.9422867872918L355.587993412089 454.5190772969088 223.44464818990764 406.4228329796718z" fill="rgba(28, 83, 142, 0.4)" class="triangle-float1"></path><path d="M903.4778220254592 179.3179220629339L905.2573181566181 77.37065698675417 803.3100530804384 75.59116085559528 801.5305569492795 177.538425931775z" fill="rgba(28, 83, 142, 0.4)" class="triangle-float3"></path></g><defs><mask id="SvgjsMask1021"><rect width="1440" height="560" fill="#ffffff"></rect></mask><style>
            @keyframes float1 {
                0%{transform: translate(0, 0)}
                50%{transform: translate(-10px, 0)}
                100%{transform: translate(0, 0)}
            }

            .triangle-float1 {
                animation: float1 5s infinite;
            }

            @keyframes float2 {
                0%{transform: translate(0, 0)}
                50%{transform: translate(-5px, -5px)}
                100%{transform: translate(0, 0)}
            }

            .triangle-float2 {
                animation: float2 4s infinite;
            }

            @keyframes float3 {
                0%{transform: translate(0, 0)}
                50%{transform: translate(0, -10px)}
                100%{transform: translate(0, 0)}
            }

            .triangle-float3 {
                animation: float3 6s infinite;
            }
        </style></defs></svg>